PathFileType	3	(X/Y/Z)	C:\Users\hrist\Documents\PhD\NeuroM Model Experiments\Complete_Controller_Data_Collection\S2_M\LG_Walk_Slower\LG_Walk_Slower01.trc																																																																																																							
DataRate	CameraRate	NumFrames	NumMarkers	Units	OrigDataRate	OrigDataStartFrame	OrigNumFrames																																																																																																			
100	100	7	35	mm	100	912	481																																																																																																			
Frame#	Time	R.ASIS			L.ASIS			V.Sacral			R.Thigh.Upper			R.Knee.Med			R.Knee.Lat			R.Thigh.Rear			R.Thigh.Front			L.Thigh.Upper			L.Knee.Med			L.Knee.Lat			L.Thigh.Rear			L.Thigh.Front			R.Shank.Upper			R.Ankle.Med			R.Ankle.Lat			R.Shank.Front			R.Shank.Rear			L.Shank.Upper			L.Ankle.Med			L.Ankle.Lat			L.Shank.Front			L.Shank.Rear			R.Toe.Tip			R.Heel			R.Toe.Med			R.Toe.Lat			R.Midfoot.Lat			R.Midfoot.Sup			L.Heel			L.Toe.Tip			L.Toe.Med			L.Toe.Lat			L.Midfoot.Lat			L.Midfoot.Sup		
		X1	Y1	Z1	X2	Y2	Z2	X3	Y3	Z3	X4	Y4	Z4	X5	Y5	Z5	X6	Y6	Z6	X7	Y7	Z7	X8	Y8	Z8	X9	Y9	Z9	X10	Y10	Z10	X11	Y11	Z11	X12	Y12	Z12	X13	Y13	Z13	X14	Y14	Z14	X15	Y15	Z15	X16	Y16	Z16	X17	Y17	Z17	X18	Y18	Z18	X19	Y19	Z19	X20	Y20	Z20	X21	Y21	Z21	X22	Y22	Z22	X23	Y23	Z23	X24	Y24	Z24	X25	Y25	Z25	X26	Y26	Z26	X27	Y27	Z27	X28	Y28	Z28	X29	Y29	Z29	X30	Y30	Z30	X31	Y31	Z31	X32	Y32	Z32	X33	Y33	Z33	X34	Y34	Z34	X35	Y35	Z35
912	9.11	-37.71079664	981.4545531	831.5903672	222.7592827	1004.157268	863.2070909	115.3405187	1024.789334	660.7859962	-97.35207699	757.4011059	737.6615517	19.00863341	487.3620352	790.1229112	-108.4329036	517.5907501	751.596711	-100.1416382	647.3433817	745.9944853	-41.34751908	701.4083497	883.2791896	281.4147365	813.433374	788.9117926	86.71548081	520.9767	819.215911	215.672785	502.2164117	824.0872265	245.0417832	658.6343993	812.0227599	190.1626311	738.6964957	915.0861691	-110.218455	484.9328659	729.6586148	-4.663534192	208.460762	487.4628321	-69.50151779	235.1386586	429.3454532	-73.38356786	391.8572745	749.7444884	-117.8121641	440.9277075	657.334404	216.3212569	462.0759519	822.6348912	64.92121729	94.68302403	791.7972129	153.6793598	82.68772999	762.3228742	156.3835624	423.6281011	872.7457457	217.6367996	386.9657536	818.5363081	-81.07816702	50.79734563	520.3849466	2.200112066	249.4206387	376.3571903	-36.18679504	72.07676152	493.1869834	-134.5654131	94.65609291	455.3142699	-115.891089	133.233211	444.3315211	-37.25137405	114.6814738	495.3138459	94.92764005	41.21518017	699.5982521	136.2123863	44.14380939	958.3945087	93.11017236	34.07471356	915.0738775	199.596146	32.11254235	890.9807459	186.9127814	45.90912536	853.8986993	88.15720126	45.74136081	878.7312532
913	9.12	-36.61730857	982.4378466	835.514728	223.912739	1004.261112	866.5732707	115.9224192	1025.102758	664.4482846	-96.93997021	757.7056937	744.5255216	20.31774674	488.2674177	800.1405962	-106.7591923	518.402724	762.152428	-99.51294703	647.5584298	754.5294697	-39.78788295	703.469178	890.3889013	281.8956644	813.5216288	791.4878953	87.01081717	521.2637409	820.6936465	215.9552328	502.1494662	824.6897788	245.4196979	658.6779888	813.5216057	191.1162451	738.1675165	917.5582042	-108.3730033	485.6941023	739.7806891	-4.62755631	205.5698657	501.2621538	-68.59146294	232.8252033	442.3489252	-72.77754279	392.5860627	761.1843514	-115.8616193	441.2225082	667.8996238	216.5820739	462.0792393	823.2051705	64.86622397	94.75214455	791.7948873	153.6962054	82.72229182	762.4103024	156.5402525	423.551146	873.1401363	217.731346	386.9044212	818.876554	-86.20352107	51.83634033	537.8157722	3.682828323	243.5377876	388.9195175	-40.32941298	70.64522361	510.2351854	-138.0240649	95.64633792	471.9050833	-118.0655151	133.3228508	459.9482379	-40.02165054	113.5131495	511.4728292	94.91479303	41.2674819	699.6113583	136.1963491	44.15434534	958.4304187	93.11207024	34.03434023	915.0870882	199.5761613	32.12264288	890.9772	186.8816846	45.99338376	853.9481394	88.12413845	45.72072568	878.7443865
914	9.13	-35.5418097	983.370385	839.2838017	225.0243237	1004.351107	869.8632522	116.4857991	1025.358942	667.9695714	-96.46644098	757.9645803	751.2618911	21.75948978	489.2982997	810.0094381	-104.9819079	519.2481783	772.6399453	-98.77921725	647.8522254	762.9530839	-38.21675253	705.5607158	897.3952438	282.3368841	813.6125254	793.9621419	87.3391173	521.5893111	822.3147501	216.2204271	502.1288702	825.2792264	245.7670525	658.6491615	814.8860982	192.0734935	737.6306316	919.9692203	-106.5434849	486.3363649	749.9163436	-4.712276901	202.2117581	515.6370428	-67.87231539	229.6902067	455.9235545	-71.9898072	393.1994519	772.4629516	-113.892821	441.2884727	678.5088811	216.8452484	462.0843683	823.709531	64.84337565	94.82589588	791.8152124	153.6982024	82.75672216	762.4831396	156.7294559	423.4838149	873.5239682	217.8298281	386.8353715	819.1319835	-91.04267176	52.74105723	556.5405956	4.748455275	236.7062468	401.9754441	-44.52419517	69.03931378	528.4383993	-141.4541116	96.15778332	489.4975754	-120.2854416	132.8332231	476.4690677	-42.79937515	112.032702	528.5352001	94.90086191	41.33015471	699.6199088	136.1832078	44.15910803	958.4610919	93.11750966	34.00650964	915.0992674	199.5568341	32.1326481	890.971246	186.8670078	46.07847197	853.9962781	88.09703037	45.69929417	878.7543551
915	9.14	-34.50777123	984.249301	842.9429707	226.0993089	1004.409337	873.0830208	117.0040385	1025.561374	671.3748169	-95.93888855	758.1691963	757.8915954	23.31628742	490.3868107	819.7193823	-103.2594727	520.0805343	782.9411309	-97.96277259	648.200183	771.2748412	-36.59925779	707.6588485	904.3050587	282.7523865	813.6711218	796.323495	87.66593858	521.84206	823.6988639	216.478551	502.1279345	825.8466821	246.0835443	658.5354405	816.1248208	193.0056256	737.0670577	922.2947512	-104.684527	486.9353785	760.0423058	-4.953079513	198.3891437	530.6814053	-67.34505607	225.744899	470.0961421	-71.14442016	393.7609003	783.6450929	-111.7857725	441.2311036	689.1857465	217.11383	462.037951	824.1583731	64.8407327	94.88331249	791.8415173	153.6854423	82.78194819	762.5282772	156.9585354	423.410764	873.9142669	217.9635858	386.812869	819.4328398	-95.5576656	53.49558008	576.4500166	5.441770665	229.0172945	415.6426217	-48.66535849	67.33455265	547.7955853	-144.7709883	96.11155105	507.9238934	-122.4711459	131.7166174	493.7596342	-45.54358184	110.2614047	546.4627007	94.87631392	41.37415476	699.6212444	136.1792217	44.1607345	958.4853385	93.12872456	33.98517831	915.1070461	199.5420839	32.15539555	890.972248	186.8556893	46.13814081	854.0224108	88.0779874	45.68100432	878.765329
916	9.15	-33.52281884	985.078796	846.5259025	227.1463806	1004.415308	876.2437476	117.4645588	1025.748435	674.6240664	-95.33659217	758.3185121	764.4234684	24.94718852	491.4758529	829.278438	-101.720565	520.9067715	792.9452845	-97.07445202	648.5736603	779.5142192	-34.88993277	709.765684	911.1049954	283.1375158	813.6822916	798.5838404	87.97713173	521.9598413	824.7612012	216.7439983	502.1211156	826.4048621	246.3779118	658.4083547	817.3280898	193.8929534	736.4688977	924.5156396	-102.7775015	487.5267858	770.1147545	-5.316334319	194.1275084	546.3781969	-66.99994005	221.096389	484.8837946	-70.31513692	394.3597027	794.8402693	-109.599898	441.0619801	699.9797404	217.3963078	461.9308893	824.6011964	64.83876757	94.92088452	791.8677938	153.6624669	82.78920864	762.541377	157.2393533	423.309057	874.3296732	218.1268305	386.8218718	819.7730092	-99.7442059	54.03650933	597.2025898	5.852567824	220.6618243	430.0517723	-52.57867601	65.45998166	568.0047364	-147.8961108	95.49935001	527.0283698	-124.5592601	129.9622351	511.6667586	-48.18582213	108.1989506	565.1265473	94.8221525	41.38131209	699.6395491	136.189015	44.16423911	958.5042948	93.14754185	33.96605983	915.1096791	199.5378956	32.172841	890.9722248	186.8398948	46.15941489	854.0188674	88.07264915	45.6717068	878.7781338
917	9.16	-32.58248629	985.8667506	850.0407885	228.1646083	1004.353284	879.3508317	117.8715424	1025.97885	677.6596543	-94.64790277	758.4553763	770.8722404	26.64379479	492.5857224	838.7485666	-100.34158	521.7432196	802.7120735	-96.09039177	648.9720318	787.6850483	-33.05483151	711.9023699	917.7647639	283.4371793	813.6537519	800.7194306	88.2657383	521.9324077	825.6497838	217.0240477	502.0862028	826.9745582	246.6634372	658.3577924	818.6080997	194.7262467	735.8457493	926.6271281	-100.8313036	488.0438647	780.1494644	-5.718595972	189.4654991	562.5177196	-66.83598822	215.8896651	500.2868024	-69.44806588	395.0133503	806.1611366	-107.5987158	440.6821267	710.9598051	217.7039398	461.82929	825.0713188	64.83493498	94.94637939	791.9016747	153.6348354	82.77882598	762.5293191	157.5814096	423.1612751	874.7883924	218.2916418	386.7892632	820.0508768	-103.5135372	54.30069911	618.5052077	6.0062558	211.8747099	445.2063495	-56.08008852	63.36192364	588.7551914	-150.7370552	94.37271655	546.7517901	-126.4944036	127.5950384	530.1270016	-50.58355013	105.8254444	584.3311923	94.73013429	41.38897221	699.7203056	136.2119217	44.16669904	958.5169825	93.17556606	33.95053875	915.1075199	199.5412352	32.15915747	890.9611922	186.8279042	46.14743873	853.9964453	88.08707019	45.66793906	878.7862093
918	9.17	-31.68452934	986.6288853	853.4859161	229.1468688	1004.225191	882.4047285	118.2422369	1026.27252	680.5555927	-93.8917996	758.6805291	777.2760289	28.41959532	493.8052798	848.1922715	-98.91089168	522.5786645	812.5157563	-95.04713375	649.4638487	795.8073579	-31.08728939	714.0969322	924.2555817	283.590525	813.6058428	802.6834495	88.50936714	521.7313247	826.4150009	217.3192036	502.0046481	827.5679726	246.9550247	658.3661515	819.9719736	195.5077961	735.2163109	928.6403088	-98.91205406	488.3809496	790.2397206	-6.085633	184.452932	578.7959736	-66.8701506	210.2427989	516.2786163	-68.35330179	395.6885186	817.7895176	-106.0629447	439.9404272	722.1878382	218.0109383	461.8074535	825.5571039	64.84197303	94.96558489	791.9507444	153.611096	82.76533693	762.5111187	157.9795365	422.9641229	875.303009	218.4716351	386.7100073	820.3140748	-106.6883246	54.27115032	640.2498533	5.859171568	202.8601815	460.9937508	-59.04025277	61.1042527	609.9628396	-153.1798475	92.73261348	567.0682746	-128.2224845	124.6740727	549.1504264	-52.58420728	103.181295	603.9410835	94.62065247	41.46159746	699.8636571	136.2443382	44.15636671	958.5187828	93.21333095	33.94229007	915.1024969	199.5505283	32.11118624	890.9405076	186.8316566	46.10633232	853.9619069	88.12240416	45.66316937	878.7863251
